<?xml version="1.0" encoding="UTF-8"?>
<svg id="Layer_1" data-name="Layer 1" xmlns="http://www.w3.org/2000/svg" viewBox="0 0 797.53 231.05">
  <defs>
    <style>
      .cls-1 {
        stroke-width: 0px;
      }
    </style>
  </defs>
  <g>
    <path class="cls-1" d="M239.33,81.94h20.71c2.91,0,5.59.35,8.03,1.04,2.44.7,4.53,1.76,6.27,3.18,1.74,1.42,3.09,3.23,4.04,5.42.95,2.18,1.43,4.8,1.43,7.84,0,4.37-1.21,7.92-3.61,10.64-2.41,2.72-5.48,4.37-9.21,4.94v.29c.63.13,1.27.3,1.9.52.63.22,1.27.6,1.9,1.14.63.54,1.25,1.3,1.85,2.28.6.98,1.16,2.23,1.66,3.75l8.65,25.27h-12.92l-6.56-21.56c-.82-2.66-2.01-4.48-3.56-5.46-1.55-.98-3.44-1.47-5.65-1.47h-2.75v28.5h-12.16v-66.31ZM256.43,110.82c3.23,0,5.84-.82,7.84-2.47,2-1.65,2.99-4.18,2.99-7.6,0-3.8-.95-6.33-2.85-7.6-1.9-1.27-4.56-1.9-7.98-1.9h-4.94v19.57h4.94Z"/>
    <path class="cls-1" d="M292.91,115.1c0-5.95.73-11.08,2.19-15.39,1.46-4.31,3.4-7.84,5.84-10.59,2.44-2.75,5.26-4.8,8.46-6.13,3.2-1.33,6.51-2,9.93-2s6.73.67,9.93,2c3.2,1.33,6.02,3.37,8.46,6.13,2.44,2.76,4.38,6.29,5.84,10.59,1.46,4.31,2.19,9.44,2.19,15.39s-.73,11.08-2.19,15.39c-1.46,4.31-3.41,7.84-5.84,10.59-2.44,2.75-5.26,4.8-8.46,6.13-3.2,1.33-6.51,2-9.93,2s-6.73-.67-9.93-2c-3.2-1.33-6.02-3.37-8.46-6.13-2.44-2.76-4.39-6.29-5.84-10.59-1.46-4.31-2.19-9.44-2.19-15.39ZM305.45,115.1c0,4.56.36,8.42,1.09,11.59.73,3.17,1.71,5.72,2.94,7.65,1.24,1.93,2.71,3.34,4.42,4.23,1.71.89,3.51,1.33,5.42,1.33s3.71-.44,5.41-1.33c1.71-.89,3.18-2.29,4.42-4.23,1.24-1.93,2.22-4.48,2.95-7.65.73-3.17,1.09-7.03,1.09-11.59s-.37-8.42-1.09-11.59c-.73-3.17-1.71-5.71-2.95-7.65-1.23-1.93-2.71-3.34-4.42-4.23-1.71-.89-3.51-1.33-5.41-1.33s-3.71.44-5.42,1.33c-1.71.89-3.18,2.3-4.42,4.23-1.24,1.93-2.22,4.48-2.94,7.65-.73,3.17-1.09,7.03-1.09,11.59Z"/>
    <path class="cls-1" d="M365.49,91.63h-14.82v-9.69h41.71v9.69h-14.72v56.62h-12.16v-56.62Z"/>
    <path class="cls-1" d="M397.32,115.1c0-5.95.73-11.08,2.18-15.39,1.46-4.31,3.4-7.84,5.84-10.59,2.44-2.75,5.26-4.8,8.46-6.13,3.2-1.33,6.51-2,9.93-2s6.73.67,9.93,2c3.2,1.33,6.02,3.37,8.46,6.13,2.44,2.76,4.38,6.29,5.84,10.59,1.46,4.31,2.18,9.44,2.18,15.39s-.73,11.08-2.18,15.39c-1.46,4.31-3.41,7.84-5.84,10.59-2.44,2.75-5.26,4.8-8.46,6.13-3.2,1.33-6.51,2-9.93,2s-6.73-.67-9.93-2c-3.2-1.33-6.02-3.37-8.46-6.13-2.44-2.76-4.39-6.29-5.84-10.59-1.46-4.31-2.18-9.44-2.18-15.39ZM409.86,115.1c0,4.56.36,8.42,1.09,11.59.73,3.17,1.71,5.72,2.95,7.65,1.24,1.93,2.71,3.34,4.42,4.23,1.71.89,3.51,1.33,5.41,1.33s3.71-.44,5.42-1.33c1.71-.89,3.18-2.29,4.42-4.23,1.24-1.93,2.22-4.48,2.95-7.65.73-3.17,1.09-7.03,1.09-11.59s-.37-8.42-1.09-11.59c-.73-3.17-1.71-5.71-2.95-7.65-1.24-1.93-2.71-3.34-4.42-4.23-1.71-.89-3.52-1.33-5.42-1.33s-3.7.44-5.41,1.33c-1.71.89-3.18,2.3-4.42,4.23-1.23,1.93-2.22,4.48-2.95,7.65-.73,3.17-1.09,7.03-1.09,11.59Z"/>
    <path class="cls-1" d="M463.82,81.94h20.71c2.91,0,5.59.35,8.03,1.04,2.44.7,4.53,1.76,6.27,3.18,1.74,1.42,3.09,3.23,4.04,5.42.95,2.18,1.43,4.8,1.43,7.84,0,4.37-1.2,7.92-3.61,10.64-2.41,2.72-5.48,4.37-9.21,4.94v.29c.63.13,1.27.3,1.9.52.63.22,1.27.6,1.9,1.14.63.54,1.25,1.3,1.85,2.28.6.98,1.16,2.23,1.66,3.75l8.64,25.27h-12.92l-6.55-21.56c-.82-2.66-2.01-4.48-3.56-5.46-1.55-.98-3.44-1.47-5.65-1.47h-2.76v28.5h-12.16v-66.31ZM480.92,110.82c3.23,0,5.84-.82,7.84-2.47,2-1.65,2.99-4.18,2.99-7.6,0-3.8-.95-6.33-2.85-7.6-1.9-1.27-4.56-1.9-7.98-1.9h-4.94v19.57h4.94Z"/>
    <path class="cls-1" d="M552.74,93.91h-.19l-10.45,54.34h-14.34l-13.39-66.31h11.4l9.31,51.11h.19l9.98-51.11h14.82l9.88,51.11h.19l9.69-51.11h11.02l-13.68,66.31h-14.54l-9.88-54.34Z"/>
    <path class="cls-1" d="M602.04,81.94h34.87v9.69h-22.71v17.67h21.47v9.69h-21.47v19.57h23.65v9.69h-35.81v-66.31Z"/>
    <path class="cls-1" d="M651.82,81.94h20.71c2.91,0,5.59.35,8.03,1.04,2.44.7,4.53,1.76,6.27,3.18,1.74,1.42,3.09,3.23,4.04,5.42.95,2.18,1.42,4.8,1.42,7.84,0,4.37-1.2,7.92-3.61,10.64-2.41,2.72-5.48,4.37-9.21,4.94v.29c.63.13,1.27.3,1.9.52.63.22,1.27.6,1.9,1.14.63.54,1.25,1.3,1.85,2.28.6.98,1.15,2.23,1.66,3.75l8.65,25.27h-12.92l-6.55-21.56c-.82-2.66-2.01-4.48-3.56-5.46-1.55-.98-3.44-1.47-5.65-1.47h-2.75v28.5h-12.16v-66.31ZM668.92,110.82c3.23,0,5.84-.82,7.84-2.47,1.99-1.65,2.99-4.18,2.99-7.6,0-3.8-.95-6.33-2.85-7.6-1.9-1.27-4.56-1.9-7.98-1.9h-4.94v19.57h4.94Z"/>
    <path class="cls-1" d="M708.06,81.94h12.16v28.12h.28l18.91-28.12h13.96l-22.52,31.25,24.32,35.05h-14.72l-19.95-31.16h-.28v31.16h-12.16v-66.31Z"/>
  </g>
  <g>
    <path class="cls-1" d="M199.57,96.32h-51.25v51.3c-23.94,1.52-50.08-18.77-51.7-48.31-1.62-29.57,22.25-55.02,51.74-54.85,28.3.16,52.72,24.47,51.21,51.85Z"/>
    <path class="cls-1" d="M148.2,9.71c0,5.25.25,9.98-.19,14.66-.1,1.07-2.49,2.65-3.91,2.76-21.34,1.56-38.73,10.69-51.33,27.85-15.68,21.34-18.57,44.89-7.94,69.1,10.97,24.98,30.95,38.52,58.07,41.51,1.6.18,3.21.27,5,.41v16.92c-30.79-1.03-55.28-13.48-71.71-39.02-19.77-30.73-20.03-62.86-.74-93.9,16.36-26.32,41.25-39,72.75-40.29Z"/>
    <path class="cls-1" d="M147.95,200.52v16.43c-58.96,2.56-120.99-48.68-120.67-120.2h16.83c.63,28.4,10.54,53.05,30.6,73.13,19.97,19.98,44.48,29.88,73.25,30.64Z"/>
  </g>
</svg>