<?xml version="1.0" encoding="UTF-8"?>
<svg id="Layer_1" data-name="Layer 1" xmlns="http://www.w3.org/2000/svg" viewBox="0 0 820 236.52">
  <defs>
    <style>
      .cls-1, .cls-2 {
        stroke-width: 0px;
      }

      .cls-2 {
        fill: #fff;
      }
    </style>
  </defs>
  <path class="cls-2" d="M0,0h820v236.52H0c0-78.84,0-157.68,0-236.52ZM93.47,115.62c.64.51.96.75,1.26,1.01,3.18,2.71,6.65,4.98,10.55,6.51,3.71,1.45,7.4,3,11.19,4.19,2.97.93,6.06,1.56,9.15,1.97,2.18.29,3.2-1.34,2.41-3.43-.38-1.02-.88-2.04-1.53-2.9-2.28-3.02-4.61-5.99-6.99-8.93-5.78-7.15-12.56-12.96-21.47-15.91-.36-.12-.63-.65-.84-1.04-.83-1.56-1.53-3.21-2.48-4.7-.45-.7-.73-1.23-.57-2.08.91-4.81,1.58-9.68,1.03-14.56-.92-8.11-2.95-15.98-6-23.57-.37-.93-.92-1.83-1.56-2.6-.95-1.16-2.43-1.17-3.39-.02-.66.8-1.26,1.73-1.6,2.71-1.1,3.19-2.12,6.4-3.09,9.64-2.77,9.25-3.94,18.62-1.79,28.17.29,1.29.07,2.31-.68,3.4-.66.96-.97,2.15-1.57,3.16-.36.61-.89,1.23-1.5,1.58-3.63,2.08-7.6,3.69-10.91,6.18-7.29,5.48-12.96,12.52-17.9,20.14-.35.54-.61,1.16-.8,1.77-.59,1.95.32,3.22,2.34,3.3.69.03,1.41.03,2.06-.15,3.6-1.01,7.22-1.96,10.76-3.15,7.13-2.4,14.02-5.3,19.61-10.59.1-.09.27-.11.59-.24-.18,2.45-.34,4.75-.51,7.05-1.55,21.86-3.12,43.73-4.63,65.59-.08,1.15-.5,1.39-1.55,1.38-4.8-.05-9.61-.02-14.41-.02-2.89,0-5.78.02-8.67-.01-.78,0-1.14.22-1.08,1.04.04.55,0,1.11,0,1.7h148.83c.44-2.68.41-2.72-2.14-2.72-4.72,0-9.44,0-14.17,0-.72,0-1.2-.03-1.25-1-.28-5.73-.63-11.45-.95-17.17-.55-9.74-1.11-19.48-1.63-29.23-.09-1.59-.01-3.19-.01-4.77,1.48,1.01,2.86,2.3,4.5,3.02,4.16,1.84,8.39,3.5,12.66,5.07,1.66.61,3.47.9,5.23,1.13,2.06.26,3.2-1.28,2.35-3.16-.58-1.28-1.31-2.55-2.19-3.64-2.21-2.76-4.49-5.47-6.86-8.1-3.54-3.94-7.75-6.93-12.92-8.4-.24-.07-.52-.28-.62-.5-.65-1.35-1.29-2.71-1.86-4.09-.14-.34-.05-.79,0-1.18.27-2.67.79-5.33.79-8,0-5.55-1.59-10.83-3.22-16.08-.54-1.73-1.27-3.44-2.16-5.02-.94-1.68-2.63-1.63-3.73-.03-.41.6-.77,1.26-1.01,1.94-3.15,9.06-5.6,18.21-3.36,27.93.06.27.14.6.05.83-.58,1.37-1.21,2.71-1.74,3.87-1.07.42-2.08.72-3.01,1.18-4.89,2.4-9.13,5.66-12.53,9.93-2.35,2.95-4.71,5.92-6.74,9.09-1.43,2.24-.19,3.99,2.42,3.54,2.79-.48,5.54-1.29,8.23-2.17,5.04-1.66,9.97-3.57,14.01-7.19.13-.12.34-.15.59-.25,0,.34.02.58,0,.82-.44,6.08-.89,12.16-1.32,18.24-.76,10.75-1.52,21.49-2.25,32.24-.06.9-.39,1.17-1.27,1.15-2.36-.05-4.72-.02-7.08-.02-18.52,0-37.05,0-55.57,0-.75,0-1.49.2-1.55-1.07-.61-11.98-1.29-23.95-1.96-35.93-.54-9.66-1.1-19.32-1.64-28.98-.14-2.5-.25-5.01-.4-7.89ZM593.92,97.58c.08,0,.16,0,.24,0,.13.45.27.89.4,1.34,2.71,9.61,5.44,19.22,8.11,28.85.34,1.22.89,1.72,2.2,1.68,2.93-.09,5.86-.07,8.79,0,1.14.02,1.66-.42,2-1.48,5.61-17.28,11.25-34.54,16.87-51.82.52-1.59.13-2.12-1.53-2.12-3.46-.01-6.92.03-10.38-.02-1.21-.02-1.82.42-2.16,1.62-2.72,9.74-5.49,19.47-8.25,29.2-.16.57-.36,1.13-.63,1.98-.21-.69-.34-1.07-.44-1.45-2.64-9.38-5.29-18.76-7.89-28.16-.33-1.18-.9-1.66-2.14-1.64-3.21.06-6.43.06-9.65,0-1.24-.03-1.78.44-2.11,1.63-2.53,9.29-5.13,18.56-7.7,27.84-.14.49-.3.97-.45,1.46-.61-1.22-.97-2.42-1.31-3.62-2.61-9.06-5.23-18.11-7.83-27.17-.26-.91-.55-1.68-1.73-1.68-3.87.03-7.73,0-11.6.02-1.28,0-1.68.61-1.29,1.81,5.64,17.44,11.3,34.88,16.93,52.32.3.93.82,1.28,1.78,1.27,2.89-.04,5.78-.01,8.67-.01q1.89,0,2.42-1.83c2.77-9.64,5.55-19.28,8.32-28.92.11-.37.25-.72.38-1.08ZM465.7,129.41c16.64.28,28.68-13.18,28.7-28.38.02-16.19-12.14-28.47-28.44-28.62-16.18-.15-28.64,12.06-28.71,28.13-.08,16.53,12,28.78,28.46,28.87ZM357.3,72.38c-15.22-.39-27.92,11.83-28.55,27.02-.72,17.41,12.52,29.8,27.88,30.04,16.14.25,28.8-11.68,29.3-27.72.49-15.57-11.35-29.36-28.62-29.34ZM539.85,109.28c.6-.34,1.16-.65,1.71-.96,3.75-2.13,6.27-5.24,7.44-9.41.73-2.62.88-5.29.51-7.98-.82-5.89-3.34-10.78-8.61-13.89-3.51-2.07-7.42-2.92-11.46-2.97-7.53-.09-15.06-.05-22.59-.05-1.34,0-1.64.32-1.64,1.67,0,17.37,0,34.73,0,52.1,0,1.42.21,1.62,1.64,1.62,3.38.01,6.76,0,10.13,0,1.7,0,1.88-.18,1.88-1.91,0-4.68.04-9.36-.02-14.03-.01-1.14.24-1.59,1.46-1.52,1.74.09,3.5.07,5.25-.06.96-.07,1.36.28,1.72,1.1,2.26,5.05,4.55,10.08,6.9,15.09.25.54.91,1.24,1.39,1.25,4.31.1,8.63.08,12.94.05.99,0,1.39-.69.95-1.6-1.74-3.58-3.49-7.16-5.31-10.7-1.34-2.59-2.8-5.12-4.28-7.81ZM725.85,109.26c.61-.34,1.14-.64,1.67-.94,1.97-1.12,3.69-2.51,5.02-4.37,2.88-4.04,3.6-8.57,2.89-13.35-.99-6.67-4.23-11.8-10.6-14.58-3.29-1.44-6.78-1.98-10.36-1.99-7.2-.03-14.4-.02-21.61-.01-1.38,0-1.67.28-1.67,1.64,0,17.4,0,34.81-.02,52.21,0,1.15.44,1.58,1.59,1.57,3.42-.05,6.84-.01,10.25-.02,1.63,0,1.83-.21,1.83-1.84,0-4.68,0-9.35,0-14.03,0-.47,0-.95,0-1.61,2.26,0,4.37.09,6.47-.04,1.1-.07,1.55.32,1.97,1.27,2.23,5.01,4.54,9.99,6.8,14.99.35.77.76,1.28,1.7,1.27,4.15-.03,8.3,0,12.45-.02,1.3,0,1.64-.63,1.05-1.83-1.5-3.06-2.98-6.14-4.54-9.17-1.56-3.02-3.22-6-4.91-9.14ZM310.02,109.2c.38-.22.9-.45,1.34-.78,1.42-1.07,3.01-2.01,4.18-3.31,4.48-5.03,4.96-10.98,3.34-17.18-1.62-6.22-5.5-10.49-11.69-12.54-3.12-1.03-6.35-1.38-9.62-1.37-6.76,0-13.51,0-20.27,0-1.95,0-2.09.14-2.09,2.07,0,6.95,0,13.91,0,20.86,0,10.17,0,20.33,0,30.5,0,1.89.08,1.97,2.01,1.97,3.26,0,6.51,0,9.77,0,1.71,0,1.91-.19,1.91-1.88,0-4.68,0-9.35,0-14.03v-1.58c2.29,0,4.4.08,6.51-.04.98-.05,1.44.21,1.84,1.1,2.26,5.08,4.61,10.13,6.88,15.21.38.86.9,1.24,1.85,1.23,4.03-.03,8.06,0,12.09-.02,1.56,0,1.87-.58,1.16-1.98-3.04-6.02-6.07-12.04-9.2-18.24ZM761.55,104.15c.33.52.59.93.84,1.34,4.5,7.59,9,15.18,13.47,22.78.5.84,1.05,1.18,2.03,1.16,4.11-.05,8.22,0,12.33-.05.58,0,1.45-.2,1.65-.58.21-.4-.11-1.22-.41-1.72-6.31-10.34-12.64-20.67-19.01-30.98-.49-.8-.48-1.26.18-1.96,5.51-5.82,10.99-11.67,16.42-17.55.46-.5.58-1.31.86-1.97-.66-.2-1.32-.56-1.99-.57-3.7-.06-7.41.03-11.11-.06-1.31-.03-2.2.42-3.08,1.34-4.68,4.87-9.41,9.69-14.12,14.52-.29.29-.61.55-1.15,1.04,0-.79,0-1.23,0-1.66,0-4.51,0-9.03,0-13.54,0-1.34-.31-1.65-1.66-1.66-3.46-.01-6.92-.01-10.38,0-1.37,0-1.68.3-1.68,1.63,0,17.4,0,34.81-.02,52.21,0,1.16.44,1.59,1.59,1.57,3.38-.04,6.76-.01,10.13-.02,1.91,0,2-.09,2-2,0-6.47,0-12.93.02-19.4,0-.49.08-1.12.38-1.45.79-.85,1.73-1.57,2.7-2.42ZM654.71,107.34c.59,0,1.03,0,1.48,0,4.72,0,9.44,0,14.16,0,1.84,0,2.09-.25,2.09-2.13,0-2.68,0-5.37,0-8.05,0-1.78-.2-1.98-1.95-1.98-4.88,0-9.77-.02-14.65.01-.89,0-1.23-.25-1.21-1.17.05-2.28.07-4.56,0-6.83-.04-1.07.28-1.38,1.36-1.37,8.06.04,16.12.03,24.18.02,1.67,0,1.98-.31,1.98-2,0-2.73,0-5.45,0-8.18,0-1.86-.13-1.98-2.04-1.98-12.25,0-24.5,0-36.75,0-2.16,0-2.33.16-2.36,2.36,0,.24,0,.49,0,.73,0,16.88,0,33.76,0,50.64,0,1.63.05,1.7,1.72,1.7,12.54,0,25.07,0,37.61,0,1.4,0,1.72-.31,1.73-1.73.01-2.85.01-5.69,0-8.54,0-1.63-.28-1.89-1.94-1.89-7.98,0-15.96,0-23.93,0-.47,0-.94-.04-1.47-.06v-9.54ZM240.95,24.02v192.13h5.66V24.02h-5.66ZM404.75,107.61c0,6.67,0,13.34,0,20.01,0,1.66.14,1.79,1.83,1.79,3.26,0,6.51,0,9.77,0,1.98,0,2.05-.08,2.05-2.08,0-13.18.01-26.36-.02-39.53,0-1.11.3-1.47,1.44-1.45,3.38.07,6.76.03,10.13.02,1.55,0,1.83-.3,1.84-1.87,0-2.89,0-5.78,0-8.66,0-1.48-.33-1.82-1.78-1.82-12.29,0-24.59,0-36.88,0-1.41,0-1.73.33-1.74,1.72-.01,2.93-.01,5.86,0,8.79,0,1.57.27,1.84,1.86,1.84,3.38,0,6.76.04,10.13-.02,1.07-.02,1.39.29,1.38,1.37-.05,6.63-.02,13.26-.02,19.89ZM462.92,159.24c0,4.4,0,8.82,0,13.25,0,.69.06,1.16.95,1.15.94,0,.9-.57.9-1.21,0-3.01,0-6.02,0-9.03,0-.4.05-.8.07-1.21,1.02,1.14,1.76,2.3,2.49,3.47,1.54,2.44,3.1,4.88,4.6,7.34.54.89,1.36.68,2.05.53.25-.05.51-.81.51-1.25.04-3.99.03-7.97.02-11.96,0-1.42-.18-1.53-1.86-1.08v11.19c-.52-.28-.77-.63-.99-.99-1.91-3.07-3.82-6.15-5.73-9.23-.87-1.39-1.15-1.49-3.01-.98ZM612.23,159.22c-.02.26-.06.54-.06.82,0,4.14,0,8.29,0,12.43,0,.67.01,1.18.93,1.17.94,0,.91-.56.91-1.21,0-3.01,0-6.01,0-9.02,0-.4.05-.81.08-1.21.95,1.03,1.62,2.09,2.29,3.15,1.6,2.54,3.22,5.08,4.79,7.64.54.88,1.35.69,2.05.55.26-.05.51-.81.52-1.24.04-4.02.02-8.04.02-12.07,0-.61.1-1.22-.87-1.24-1.04-.02-.94.62-.94,1.28,0,2.97,0,5.93,0,8.9,0,.42-.04.84-.06,1.26-.5-.27-.75-.62-.97-.98-1.91-3.07-3.81-6.14-5.72-9.22-.87-1.4-1.15-1.5-2.94-1.01ZM320.99,173.54c-.11-1.25-.24-2.39-.3-3.54-.08-1.4-.16-2.78-1.66-3.61,1.87-1.27,2.24-2.96,1.63-4.89-.58-1.85-2.16-2.34-3.85-2.41-2.19-.1-4.39-.09-6.58-.04-.29,0-.82.53-.82.82-.05,4.26-.03,8.53-.04,12.79,0,.65.2.96.91.97.74,0,1-.28.99-1.01-.03-1.46,0-2.92-.01-4.39,0-.65.2-.99.91-.97,1.5.04,3.01-.01,4.51.09,1.41.1,2.01.77,2.13,2.19.06.73.02,1.46.08,2.19.14,1.97.27,2.06,2.13,1.79ZM438.47,173.51c-.12-.78-.25-1.56-.36-2.33-.25-1.7.3-3.66-1.73-4.8,1.89-1.23,2.16-2.91,1.69-4.72-.48-1.86-2.02-2.46-3.75-2.55-1.78-.1-3.58-.08-5.36-.1-.71,0-1.42,0-2.2,0,0,4.78,0,9.33,0,13.89,0,.19.06.39.09.56,1.69.35,1.78.28,1.78-1.25,0-1.58,0-3.16,0-4.93,1.08,0,2.05,0,3.01,0,4.24,0,4.4.15,4.6,4.31,0,.04,0,.08,0,.12.1,2.07.24,2.17,2.22,1.8ZM413.69,167.46c1.19,0,2.37.02,3.54,0,.79-.02.97.32.88,1.05-.26,1.93-1.46,3.34-3.3,3.79-2.08.51-4.23-.18-5.25-1.69-1.51-2.22-1.39-6.45.25-8.55,1.92-2.46,6.17-2.28,7.59.41.57,1.08,1.23,1.04,2.15.73-.02-.19,0-.31-.04-.43-1.13-4.04-7.08-5.51-10.39-2.53-2.62,2.36-2.99,5.43-2.25,8.64,1.15,5.04,6.76,6.84,10.72,3.54.17-.14.37-.26.64-.44.11.32.13.59.27.76.27.32.6.59.91.88.16-.36.45-.72.46-1.08.05-1.83-.02-3.66.04-5.49.03-.95-.37-1.19-1.23-1.16-1.3.04-2.61.06-3.91,0-1.08-.05-1.4.39-1.07,1.6ZM364.48,162.27c.11-.05.22-.09.33-.14.24.35.5.7.73,1.06,2.04,3.23,4.09,6.45,6.09,9.71.56.92,1.38.82,2.13.63.26-.07.47-.83.48-1.28.04-3.98.02-7.97.02-11.95,0-.39-.06-.78-.08-1.13-1.63-.28-1.7-.24-1.7,1.17,0,2.97,0,5.93,0,8.9,0,.4-.05.81-.07,1.21-.52-.34-.77-.69-1-1.06-1.91-3.07-3.82-6.14-5.73-9.22-.17-.28-.3-.71-.54-.79-.62-.2-1.29-.28-1.95-.3-.15,0-.44.46-.44.71-.03,4.35-.04,8.7.02,13.04,0,.26.57.68.92.72.23.03.76-.45.77-.72.07-1.83.04-3.66.04-5.48,0-1.7,0-3.39,0-5.09ZM508.1,166.43c1.87-1.31,2.23-2.96,1.67-4.85-.53-1.8-2-2.38-3.69-2.45-2.23-.1-4.47-.11-6.7-.07-.3,0-.83.54-.83.83-.06,4.27-.03,8.53-.05,12.8,0,.66.24.95.93.95.7,0,.92-.32.91-.97-.02-1.46.01-2.93,0-4.39,0-.62.15-1.02.88-1,1.46.04,2.93-.02,4.39.07,1.62.11,2.2.78,2.31,2.42.05.73.04,1.46.1,2.19.16,1.83.49,2.03,2.05,1.53-.11-1.33-.23-2.6-.31-3.87-.08-1.25-.24-2.45-1.65-3.19ZM491.88,159.02c-3.34,0-6.55,0-9.76,0-.79,0-.79.53-.79,1.08,0,4.15.02,8.3-.02,12.44,0,.87.34,1.11,1.16,1.1,2.85-.03,5.7-.01,8.55-.01.53,0,1.08.06,1.1-.76.02-.85-.49-.89-1.11-.89-2.16,0-4.32-.05-6.47.02-1.1.04-1.45-.36-1.35-1.41.07-.77.08-1.55,0-2.31-.11-1.07.28-1.42,1.37-1.38,2.18.08,4.37.02,6.6.02v-1.67h-7.95c0-.81,0-1.45,0-2.09.04-2.81-.4-2.46,2.44-2.48,2.06-.02,4.12,0,6.24,0v-1.66ZM338.55,165.31c0-1.28.06-2.34-.02-3.39-.07-.97.29-1.28,1.24-1.25,2.2.05,4.39,0,6.59.02.55,0,.94-.1.93-.79,0-.62-.23-.88-.86-.88-2.97.01-5.94-.02-8.91.04-.29,0-.82.53-.82.82-.05,4.31-.05,8.62,0,12.93,0,.28.48.78.75.78,3.05.06,6.1.05,9.15,0,.26,0,.52-.51.78-.78-.31-.27-.6-.77-.92-.78-2.11-.07-4.23-.04-6.35-.05-.48,0-.96-.05-1.58-.08,0-.74,0-1.38,0-2.01q0-2.96,2.9-2.96c1.69,0,3.39,0,5.09,0v-1.62h-7.99ZM390.97,165.31c-2.38,0-4.61-.03-6.84.01-.81.01-1.22-.19-1.15-1.08.06-.81.05-1.63,0-2.44-.05-.85.29-1.15,1.13-1.13,2.19.04,4.39,0,6.59.01.57,0,1.04-.03,1.04-.81,0-.75-.39-.86-1-.86-2.85.01-5.69.02-8.54,0-.77,0-1.09.23-1.08,1.04.03,4.18.02,8.37,0,12.55,0,.7.19,1.05.96,1.04,2.93-.02,5.86.01,8.78-.04.33,0,.86-.4.95-.72.2-.68-.3-.89-.93-.89-1.42.01-2.85.03-4.27,0-1.16-.03-2.7.28-3.38-.33-.59-.52-.15-2.14-.27-3.26-.13-1.21.35-1.53,1.51-1.48,2.14.09,4.28.02,6.49.02v-1.62ZM526.43,166.94c.28-1.6.26-1.62-1.13-1.62-1.14,0-2.28,0-3.42,0-3.46,0-3.43,0-3.36-3.5.02-.84.29-1.15,1.13-1.14,2.24.04,4.47,0,6.71.01.58,0,.92-.15.92-.82,0-.63-.26-.86-.88-.86-2.93.01-5.85.02-8.78,0-.67,0-.95.23-.95.92.02,4.27,0,8.53.05,12.8,0,.3.52.85.8.86,3.01.06,6.02.06,9.02,0,.29,0,.57-.46.85-.71-.28-.3-.54-.82-.84-.85-1.21-.1-2.44-.05-3.66-.05-1.41,0-2.82,0-4.36,0,0-1.46.04-2.71-.01-3.96-.04-.87.3-1.12,1.14-1.1,2.23.05,4.47.02,6.76.02ZM454.36,159.11c0,.57,0,1.02,0,1.46,0,2.64.03,5.28-.02,7.92-.03,2-.94,3.21-2.6,3.66-3,.81-5-.65-5.05-3.75-.04-2.64-.01-5.28-.02-7.92,0-1.6-.17-1.72-1.79-1.27-.03.11-.08.23-.08.34,0,3.05-.03,6.09-.01,9.14.02,3.16,1.87,5.16,4.84,5.31,3.77.19,6.36-1.6,6.54-4.84.19-3.31.04-6.65.04-10.06h-1.86ZM302.37,159.18c-1.75-.31-1.81-.26-1.82,1.31,0,2.64.03,5.28-.02,7.92-.05,2.57-1.4,3.92-3.82,3.94-2.36.03-3.73-1.37-3.84-3.92-.02-.57-.01-1.14-.01-1.71,0-2.51,0-5.02,0-7.59h-1.88c0,3.41-.08,6.71.02,9.99.08,2.71,1.77,4.43,4.44,4.83,3.53.53,6.69-1.35,6.87-4.39.21-3.44.05-6.9.05-10.4ZM603.6,159.11c0,.58,0,1.03,0,1.47,0,2.6.03,5.21-.02,7.81-.03,2.05-.9,3.27-2.52,3.74-3.02.87-5.09-.61-5.14-3.77-.05-2.72-.02-5.45-.01-8.17,0-.65.03-1.2-.91-1.2-.87,0-.99.41-.98,1.13.03,2.93,0,5.86.03,8.78,0,.52.05,1.06.2,1.56.72,2.51,2.88,3.77,5.95,3.51,3.07-.26,5.06-1.91,5.22-4.79.19-3.32.04-6.65.04-10.07h-1.85ZM570.12,164.51s.02,0,.03,0c0-1.5-.03-3.01.01-4.51.03-.86-.4-1.01-1.13-.99-.82.02-.74.59-.74,1.11-.02,2.89.02,5.78-.06,8.66-.05,1.84-.94,2.92-2.49,3.36-3.02.86-5.12-.64-5.17-3.78-.05-2.77-.03-5.53,0-8.3,0-.67-.12-1.07-.93-1.06-.76,0-.97.31-.96,1.02.03,2.97-.04,5.94.03,8.91.07,3.07,2.11,5.04,5.1,5.09,3.78.06,6.12-1.76,6.29-4.99.08-1.5.01-3.01.01-4.51ZM588.59,173.48c-2.08-2.91-4.07-5.71-6.03-8.45,1.88-2.05,3.67-4.02,5.44-5.95-1.01-.13-2.06-.21-3,.87-1.31,1.5-2.79,2.84-4.2,4.25-.59.59-1.19,1.16-2.01,1.95-.04-.75-.07-1.18-.08-1.61,0-1.54-.03-3.09,0-4.63.01-.72-.36-1.02-.97-.85-.34.1-.84.53-.85.82-.05,4.27-.03,8.54-.04,12.8,0,.65.22.96.92.96.68,0,.96-.27.93-.94-.03-.69.1-1.4-.02-2.07-.39-2.11.92-3.17,2.48-4.28,1.45,2.08,2.95,4.05,4.25,6.15.8,1.29,1.78,1.26,3.17.98ZM542.44,159.01c-.27,1.62-.24,1.66,1.14,1.67,1.83,0,3.66,0,5.49,0,.41,0,.82.06,1.52.11-1.31,1.64-2.42,3.03-3.53,4.42-1.67,2.1-3.37,4.17-4.99,6.31-.32.43-.4,1.12-.37,1.68,0,.16.78.4,1.21.4,3.01.03,6.02.02,9.03.01.53,0,1.08.05,1.1-.76.02-.86-.52-.88-1.12-.88-2.12,0-4.23,0-6.35,0-.41,0-.82-.06-1.44-.1.4-.57.64-.94.92-1.29,1.84-2.28,3.68-4.56,5.52-6.83.66-.82,1.42-1.59,1.96-2.49.32-.53.39-1.27.38-1.91,0-.12-.9-.32-1.39-.33-2.48-.03-4.96-.02-7.44-.02-.56,0-1.12,0-1.64,0ZM632.43,165.3c0-1.26.04-2.38-.01-3.5-.04-.86.31-1.14,1.14-1.12,2.07.04,4.14,0,6.22.01.58,0,.91-.15.9-.83,0-.65-.29-.85-.89-.85-2.76.01-5.53.01-8.29,0-.65,0-.96.2-.95.91.02,4.26.02,8.53,0,12.79,0,.69.27.93.94.93.65,0,.97-.19.96-.9-.03-1.5.05-3.01-.03-4.51-.05-1,.26-1.36,1.29-1.32,1.94.08,3.88.02,5.88.02v-1.64h-7.15ZM277.06,165.32c0-1.02,0-1.86,0-2.7q0-1.93,1.9-1.93c2.06,0,4.13,0,6.21,0v-1.66c-3.15,0-6.19-.02-9.24.04-.24,0-.68.56-.68.86-.04,4.27-.02,8.54-.04,12.81,0,.71.32.9.97.9.84,0,.88-.5.88-1.12,0-1.82,0-3.64,0-5.58h7.14v-1.61h-7.14ZM656.68,159.02c-3.64,0-7.26-.02-10.87.04-.25,0-.69.55-.67.83.01.27.47.72.76.75.97.1,1.95.09,2.93.03.98-.06,1.25.35,1.24,1.28-.04,3.5-.01,7-.02,10.49,0,.66,0,1.2.92,1.2.9,0,.95-.49.95-1.17-.02-2.72-.02-5.45,0-8.18,0-1.13-.34-2.74.25-3.27.68-.61,2.22-.35,3.38-.32,1.16.03,1.61-.34,1.14-1.68ZM355.72,166.35c0-2.11,0-4.22,0-6.33,0-.6-.09-1.01-.85-1.02-.74,0-1,.28-1,1,.02,4.18.01,8.36,0,12.54,0,.65.11,1.08.92,1.09.81,0,.93-.42.92-1.08-.02-2.07,0-4.14,0-6.21ZM294.1,155.36c.1.65.05,1.3.33,1.75.13.21,1.18.19,1.3-.01.26-.46.2-1.11.27-1.73h-1.9ZM452.97,157.14v-1.84c-.42,0-.74,0-1.06,0-.16,0-.31.05-.45.07-.44,1.77-.25,2.01,1.51,1.77ZM297.59,157.13c1.74.25,1.94,0,1.45-1.76h-1.45v1.76ZM447.86,155.33c.17.73.23,1.34.5,1.84.08.15,1.03.11,1.08-.03.2-.54.2-1.16.29-1.81h-1.87Z"/>
  <path class="cls-1" d="M93.47,115.62c.14,2.88.26,5.39.4,7.89.54,9.66,1.1,19.32,1.64,28.98.67,11.97,1.34,23.95,1.96,35.93.07,1.27.8,1.07,1.55,1.07,18.52,0,37.05,0,55.57,0,2.36,0,4.72-.03,7.08.02.88.02,1.21-.25,1.27-1.15.73-10.75,1.48-21.49,2.25-32.24.43-6.08.88-12.16,1.32-18.24.02-.24,0-.48,0-.82-.25.1-.46.13-.59.25-4.04,3.62-8.98,5.53-14.01,7.19-2.69.89-5.44,1.69-8.23,2.17-2.61.45-3.85-1.3-2.42-3.54,2.02-3.17,4.39-6.14,6.74-9.09,3.4-4.26,7.64-7.52,12.53-9.93.93-.46,1.93-.76,3.01-1.18.52-1.16,1.16-2.5,1.74-3.87.1-.23.02-.56-.05-.83-2.24-9.71.2-18.87,3.36-27.93.24-.68.6-1.34,1.01-1.94,1.09-1.6,2.78-1.65,3.73.03.89,1.58,1.62,3.29,2.16,5.02,1.63,5.24,3.22,10.53,3.22,16.08,0,2.67-.52,5.33-.79,8-.04.39-.13.85,0,1.18.57,1.38,1.21,2.74,1.86,4.09.11.22.38.43.62.5,5.17,1.47,9.38,4.46,12.92,8.4,2.36,2.63,4.64,5.34,6.86,8.1.88,1.1,1.61,2.36,2.19,3.64.85,1.88-.29,3.42-2.35,3.16-1.77-.22-3.57-.52-5.23-1.13-4.27-1.57-8.5-3.24-12.66-5.07-1.63-.72-3.02-2.01-4.5-3.02,0,1.58-.07,3.18.01,4.77.52,9.74,1.08,19.48,1.63,29.23.32,5.72.67,11.45.95,17.17.05.97.53,1,1.25,1,4.72-.01,9.44,0,14.17,0,2.55,0,2.58.04,2.14,2.72H48.93c0-.59.04-1.14,0-1.7-.06-.82.3-1.05,1.08-1.04,2.89.03,5.78.01,8.67.01,4.8,0,9.61-.03,14.41.02,1.05.01,1.47-.23,1.55-1.38,1.52-21.87,3.08-43.73,4.63-65.59.16-2.3.33-4.6.51-7.05-.33.13-.5.15-.59.24-5.59,5.28-12.47,8.19-19.61,10.59-3.54,1.19-7.16,2.14-10.76,3.15-.65.18-1.37.17-2.06.15-2.03-.08-2.93-1.34-2.34-3.3.18-.62.45-1.24.8-1.77,4.94-7.62,10.62-14.67,17.9-20.14,3.31-2.49,7.28-4.1,10.91-6.18.61-.35,1.13-.97,1.5-1.58.6-1.01.91-2.2,1.57-3.16.75-1.09.97-2.11.68-3.4-2.14-9.56-.98-18.93,1.79-28.17.97-3.23,1.99-6.45,3.09-9.64.34-.97.94-1.91,1.6-2.71.95-1.15,2.43-1.14,3.39.02.64.77,1.18,1.67,1.56,2.6,3.05,7.59,5.08,15.46,6,23.57.55,4.87-.12,9.75-1.03,14.56-.16.85.12,1.38.57,2.08.95,1.49,1.64,3.13,2.48,4.7.21.39.48.92.84,1.04,8.91,2.95,15.69,8.76,21.47,15.91,2.38,2.94,4.71,5.92,6.99,8.93.65.86,1.15,1.88,1.53,2.9.79,2.09-.24,3.72-2.41,3.43-3.08-.41-6.18-1.04-9.15-1.97-3.8-1.19-7.48-2.74-11.19-4.19-3.9-1.53-7.37-3.79-10.55-6.51-.3-.26-.62-.5-1.26-1.01ZM94.76,189.41c0-.53.02-.93,0-1.33-.36-6.37-.75-12.74-1.1-19.11-1.01-18.27-2.01-36.53-3.01-54.8-.12-2.19-1.52-3.37-3.69-3.13-.6.07-1.22.07-1.83.05-1.78-.04-2.37.45-2.5,2.24-.75,10.55-1.49,21.09-2.24,31.64-.87,12.33-1.75,24.66-2.62,36.99-.17,2.46-.33,4.92-.5,7.46h17.49ZM177.48,189.49c0-.62.02-.99,0-1.35-.62-11.11-1.24-22.23-1.86-33.34-.37-6.57-.75-13.14-1.17-19.71-.03-.5-.34-1.24-.71-1.39-.8-.33-1.73-.38-2.61-.48-1.29-.15-1.77.27-1.86,1.58-.19,2.8-.36,5.59-.54,8.39-.42,6.32-.85,12.65-1.28,18.97-.6,8.75-1.21,17.51-1.84,26.26-.07.91.27,1.11,1.09,1.1,2.44-.04,4.88-.01,7.32-.01,1.13,0,2.25,0,3.46,0ZM47.07,126.42c.11.14.21.29.32.43.23-.02.48.01.7-.05,3.51-1,7.06-1.88,10.52-3.05,6.77-2.29,13.37-4.95,18.65-10.01,1.27-1.22,2.44-2.56,3.72-3.91-3.43-1.93-5.33-4.95-5.8-8.96-12.97,4.82-20.68,15.04-28.1,25.55ZM86,51.92c-5.1,6.71-8.49,32.89-5.04,38.13,3.31-1.68,6.72-1.55,10.17-.33.1-.18.21-.31.25-.45,1-4.22,1.6-8.52,1.14-12.82-.83-7.79-2.8-15.34-5.6-22.66-.23-.59-.56-1.14-.92-1.87ZM125.08,126.67c.07-.12.15-.24.22-.37-.38-.66-.69-1.37-1.16-1.96-2.69-3.41-5.38-6.83-8.14-10.19-4.67-5.69-10.32-10.11-17.13-13-.39-.17-.8-.3-1.33-.5-.41,4.16-2.39,7.17-5.97,9.26,3.86,3.95,7.79,7.53,12.72,9.76,6.69,3.04,13.51,5.74,20.79,6.99ZM77.59,100.03c.03,4.94,3.96,8.92,8.8,8.88,4.81-.04,8.74-4.11,8.68-9.02-.05-4.94-3.98-8.9-8.82-8.87-4.83.03-8.69,4.05-8.66,9.01ZM167.55,131.92c-2.21-1.44-3.59-3.37-4.11-5.95-8.92,3.37-14.22,10.4-19.26,17.79,8.61-2.27,17.15-4.6,23.37-11.84ZM171.27,90.72c-2.82,8.8-5.71,17.35-3.25,26.82,2.31-1.41,4.65-1.43,6.97-.28,2-5.76-.19-21.84-3.72-26.54ZM199.33,143.85c-1.7-5.48-14.81-17.49-19.28-17.81-.42,2.53-1.86,4.42-4.03,5.87,6.22,7.09,14.6,9.58,23.31,11.94ZM171.73,130.9c3.36,0,5.99-2.65,6-6.06.02-3.36-2.7-6.18-5.94-6.18-3.31,0-5.97,2.72-5.99,6.12-.02,3.43,2.58,6.12,5.92,6.12Z"/>
  <path class="cls-1" d="M593.92,97.58c-.13.36-.27.71-.38,1.08-2.78,9.64-5.55,19.28-8.32,28.92q-.52,1.83-2.42,1.83c-2.89,0-5.78-.02-8.67.01-.96.01-1.48-.34-1.78-1.27-5.63-17.44-11.29-34.88-16.93-52.32-.39-1.21.01-1.81,1.29-1.81,3.87-.03,7.73,0,11.6-.02,1.18,0,1.47.76,1.73,1.68,2.6,9.06,5.22,18.12,7.83,27.17.35,1.2.71,2.4,1.31,3.62.15-.49.31-.97.45-1.46,2.58-9.28,5.17-18.55,7.7-27.84.33-1.2.86-1.66,2.11-1.63,3.21.07,6.43.06,9.65,0,1.23-.02,1.81.46,2.14,1.64,2.6,9.39,5.26,18.77,7.89,28.16.11.39.23.77.44,1.45.27-.85.47-1.41.63-1.98,2.76-9.73,5.53-19.46,8.25-29.2.34-1.21.95-1.64,2.16-1.62,3.46.05,6.92,0,10.38.02,1.67,0,2.05.53,1.53,2.12-5.63,17.27-11.26,34.54-16.87,51.82-.34,1.06-.87,1.5-2,1.48-2.93-.06-5.86-.08-8.79,0-1.31.04-1.86-.46-2.2-1.68-2.67-9.63-5.4-19.24-8.11-28.85-.13-.45-.27-.89-.4-1.34-.08,0-.16,0-.24,0Z"/>
  <path class="cls-1" d="M465.7,129.41c-16.46-.09-28.54-12.34-28.46-28.87.08-16.08,12.53-28.28,28.71-28.13,16.3.15,28.46,12.43,28.44,28.62-.02,15.2-12.06,28.66-28.7,28.38ZM480.34,100.95c.06-3.4-.84-6.51-2.68-9.37-4.24-6.58-12.82-8.51-19.25-4.31-8.99,5.88-9.72,19.31-1.42,26.18,5.08,4.21,11.87,4.47,17.12.53,4.33-3.24,6.08-7.78,6.23-13.04Z"/>
  <path class="cls-1" d="M357.3,72.38c17.28-.02,29.11,13.77,28.62,29.34-.5,16.03-13.16,27.97-29.3,27.72-15.35-.24-28.6-12.63-27.88-30.04.63-15.19,13.33-27.41,28.55-27.02ZM371.9,102.03c0-4.57-.88-7.64-2.7-10.47-4.49-6.96-13.69-8.6-20.28-3.57-7.8,5.95-8.33,17.92-1.11,24.83,4.6,4.4,12.01,5.22,16.89,1.9,4.92-3.35,7.06-8.12,7.2-12.69Z"/>
  <path class="cls-1" d="M539.85,109.28c1.48,2.68,2.94,5.21,4.28,7.81,1.82,3.54,3.57,7.12,5.31,10.7.44.9.05,1.59-.95,1.6-4.31.03-8.63.05-12.94-.05-.48-.01-1.14-.72-1.39-1.25-2.35-5.01-4.64-10.04-6.9-15.09-.36-.81-.76-1.17-1.72-1.1-1.74.13-3.5.15-5.25.06-1.23-.07-1.48.38-1.46,1.52.06,4.68.03,9.35.02,14.03,0,1.73-.18,1.9-1.88,1.91-3.38,0-6.76,0-10.13,0-1.43,0-1.64-.2-1.64-1.62,0-17.37,0-34.73,0-52.1,0-1.35.31-1.67,1.64-1.67,7.53,0,15.06-.03,22.59.05,4.04.05,7.94.9,11.46,2.97,5.27,3.11,7.79,8,8.61,13.89.38,2.69.22,5.36-.51,7.98-1.17,4.16-3.69,7.27-7.44,9.41-.55.32-1.11.63-1.71.96ZM518.86,92.96c0,1.91,0,3.82,0,5.73,0,.64.09,1.16.89,1.14,3.69-.09,7.39-.06,11.06-.33,1.96-.15,3.76-.98,4.8-2.92,2.22-4.13-.06-8.89-4.65-9.96-3.72-.87-7.45-.44-11.18-.48-.79,0-.94.42-.93,1.08.02,1.91,0,3.82,0,5.73Z"/>
  <path class="cls-1" d="M725.85,109.26c1.69,3.14,3.35,6.11,4.91,9.14,1.57,3.03,3.04,6.11,4.54,9.17.59,1.2.25,1.82-1.05,1.83-4.15.02-8.3,0-12.45.02-.94,0-1.36-.5-1.7-1.27-2.26-5-4.57-9.98-6.8-14.99-.42-.95-.87-1.34-1.97-1.27-2.1.13-4.21.04-6.47.04,0,.67,0,1.14,0,1.61,0,4.68,0,9.35,0,14.03,0,1.63-.2,1.84-1.83,1.84-3.42,0-6.84-.03-10.25.02-1.16.02-1.59-.42-1.59-1.57.02-17.4.01-34.81.02-52.21,0-1.36.29-1.63,1.67-1.64,7.2,0,14.4-.01,21.61.01,3.57.01,7.07.55,10.36,1.99,6.36,2.79,9.6,7.91,10.6,14.58.71,4.79-.01,9.31-2.89,13.35-1.33,1.86-3.05,3.25-5.02,4.37-.53.3-1.06.59-1.67.94ZM704.86,92.88c0,1.95,0,3.9,0,5.85,0,.56,0,1.06.77,1.11,3.86.23,7.72.44,11.54-.38,1.75-.37,3.34-1.01,4.29-2.69,2.37-4.17.1-9.07-4.57-10.15-3.72-.86-7.44-.43-11.17-.47-.73,0-.87.38-.87,1,.02,1.91,0,3.82,0,5.73Z"/>
  <path class="cls-1" d="M310.02,109.2c3.13,6.2,6.16,12.22,9.2,18.24.71,1.4.39,1.97-1.16,1.98-4.03.01-8.06-.01-12.09.02-.95,0-1.47-.38-1.85-1.23-2.28-5.08-4.62-10.13-6.88-15.21-.39-.89-.85-1.15-1.84-1.1-2.1.12-4.21.04-6.51.04v1.58c0,4.68,0,9.35,0,14.03,0,1.69-.19,1.88-1.91,1.88-3.26,0-6.51,0-9.77,0-1.93,0-2.01-.08-2.01-1.97,0-10.17,0-20.33,0-30.5,0-6.95,0-13.91,0-20.86,0-1.94.14-2.07,2.09-2.07,6.76,0,13.51,0,20.27,0,3.27,0,6.5.34,9.62,1.37,6.19,2.04,10.07,6.32,11.69,12.54,1.62,6.2,1.14,12.15-3.34,17.18-1.17,1.31-2.76,2.24-4.18,3.31-.44.33-.96.57-1.34.78ZM288.9,92.87c0,1.99-.03,3.98.03,5.97.01.33.45.91.72.94,3.81.33,7.63.47,11.41-.29,1.92-.39,3.62-1.12,4.58-3.05,2.07-4.15-.21-8.77-4.74-9.83-3.72-.86-7.44-.42-11.16-.47-.73,0-.86.38-.86,1,.02,1.91,0,3.82,0,5.73Z"/>
  <path class="cls-1" d="M761.55,104.15c-.97.85-1.9,1.57-2.7,2.42-.3.32-.37.96-.38,1.45-.02,6.47-.01,12.93-.02,19.4,0,1.91-.09,2-2,2-3.38,0-6.76-.03-10.13.02-1.15.01-1.6-.41-1.59-1.57.02-17.4.01-34.81.02-52.21,0-1.33.3-1.62,1.68-1.63,3.46-.01,6.92-.01,10.38,0,1.34,0,1.65.32,1.66,1.66.01,4.51,0,9.03,0,13.54,0,.44,0,.88,0,1.66.54-.49.86-.75,1.15-1.04,4.72-4.83,9.45-9.65,14.12-14.52.88-.92,1.77-1.37,3.08-1.34,3.7.08,7.41,0,11.11.06.67.01,1.33.37,1.99.57-.28.66-.4,1.48-.86,1.97-5.44,5.88-10.92,11.73-16.42,17.55-.66.7-.67,1.17-.18,1.96,6.36,10.31,12.7,20.64,19.01,30.98.31.5.62,1.32.41,1.72-.2.38-1.07.58-1.65.58-4.11.05-8.22,0-12.33.05-.98.01-1.54-.32-2.03-1.16-4.46-7.61-8.97-15.19-13.47-22.78-.24-.41-.51-.81-.84-1.34Z"/>
  <path class="cls-1" d="M654.71,107.34v9.54c.53.02,1,.06,1.47.06,7.98,0,15.96,0,23.93,0,1.66,0,1.93.26,1.94,1.89,0,2.85.01,5.69,0,8.54,0,1.41-.33,1.72-1.73,1.73-12.54,0-25.07,0-37.61,0-1.67,0-1.72-.06-1.72-1.7,0-16.88,0-33.76,0-50.64,0-.24,0-.49,0-.73.03-2.2.19-2.36,2.36-2.36,12.25,0,24.5,0,36.75,0,1.91,0,2.04.13,2.04,1.98,0,2.73,0,5.45,0,8.18,0,1.69-.31,2-1.98,2-8.06,0-16.12.02-24.18-.02-1.08,0-1.4.3-1.36,1.37.08,2.28.06,4.56,0,6.83-.02.92.32,1.18,1.21,1.17,4.88-.03,9.77-.02,14.65-.01,1.75,0,1.95.2,1.95,1.98,0,2.68,0,5.37,0,8.05,0,1.88-.25,2.13-2.09,2.13-4.72,0-9.44,0-14.16,0-.44,0-.89,0-1.48,0Z"/>
  <path class="cls-1" d="M240.95,24.02h5.66v192.13h-5.66V24.02Z"/>
  <path class="cls-1" d="M404.75,107.61c0-6.63-.02-13.26.02-19.89,0-1.08-.31-1.39-1.38-1.37-3.38.06-6.76.03-10.13.02-1.59,0-1.85-.27-1.86-1.84,0-2.93-.01-5.86,0-8.79,0-1.4.33-1.72,1.74-1.72,12.29,0,24.59,0,36.88,0,1.45,0,1.77.34,1.78,1.82,0,2.89,0,5.78,0,8.66,0,1.57-.29,1.87-1.84,1.87-3.38,0-6.76.05-10.13-.02-1.14-.02-1.44.34-1.44,1.45.03,13.18.02,26.36.02,39.53,0,2-.08,2.08-2.05,2.08-3.26,0-6.51,0-9.77,0-1.69,0-1.83-.14-1.83-1.79,0-6.67,0-13.34,0-20.01Z"/>
  <path class="cls-1" d="M462.92,159.24c1.86-.51,2.15-.41,3.01.98,1.91,3.08,3.82,6.15,5.73,9.23.23.36.47.71.99.99v-11.19c1.69-.45,1.86-.34,1.86,1.08,0,3.99.02,7.97-.02,11.96,0,.44-.26,1.19-.51,1.25-.7.14-1.51.36-2.05-.53-1.5-2.47-3.06-4.9-4.6-7.34-.73-1.17-1.47-2.33-2.49-3.47-.03.4-.07.8-.07,1.21,0,3.01,0,6.02,0,9.03,0,.64.04,1.2-.9,1.21-.9,0-.96-.46-.95-1.15.02-4.43,0-8.85,0-13.25Z"/>
  <path class="cls-1" d="M612.23,159.22c1.8-.48,2.07-.38,2.94,1.01,1.91,3.07,3.81,6.15,5.72,9.22.22.36.47.71.97.98.02-.42.06-.84.06-1.26,0-2.97,0-5.93,0-8.9,0-.67-.1-1.3.94-1.28.97.02.87.63.87,1.24,0,4.02.02,8.04-.02,12.07,0,.44-.26,1.19-.52,1.24-.7.15-1.51.34-2.05-.55-1.57-2.57-3.19-5.1-4.79-7.64-.67-1.06-1.34-2.12-2.29-3.15-.03.4-.08.81-.08,1.21,0,3.01,0,6.01,0,9.02,0,.64.03,1.2-.91,1.21-.92,0-.93-.5-.93-1.17.01-4.14,0-8.29,0-12.43,0-.28.04-.56.06-.82Z"/>
  <path class="cls-1" d="M320.99,173.54c-1.86.27-1.99.18-2.13-1.79-.05-.73-.01-1.46-.08-2.19-.12-1.42-.72-2.09-2.13-2.19-1.5-.11-3.01-.05-4.51-.09-.7-.02-.92.32-.91.97.02,1.46-.02,2.93.01,4.39.02.73-.25,1.01-.99,1.01-.71,0-.91-.32-.91-.97.01-4.27,0-8.53.04-12.79,0-.29.53-.82.82-.82,2.19-.05,4.39-.06,6.58.04,1.7.07,3.27.56,3.85,2.41.61,1.93.24,3.62-1.63,4.89,1.51.82,1.59,2.21,1.66,3.61.06,1.15.19,2.29.3,3.54ZM314.07,165.82c.93-.06,1.87-.05,2.78-.2,1.48-.24,2.2-1.18,2.12-2.62-.08-1.48-.85-2.28-2.39-2.37-.97-.06-1.94-.02-2.92-.02q-2.41,0-2.41,2.36,0,2.79,2.83,2.85Z"/>
  <path class="cls-1" d="M438.47,173.51c-1.98.38-2.11.27-2.22-1.8,0-.04,0-.08,0-.12-.21-4.16-.36-4.31-4.6-4.31-.96,0-1.93,0-3.01,0,0,1.77,0,3.35,0,4.93,0,1.53-.1,1.6-1.78,1.25-.03-.17-.09-.37-.09-.56,0-4.55,0-9.1,0-13.89.78,0,1.49,0,2.2,0,1.79.03,3.58,0,5.36.1,1.73.09,3.26.69,3.75,2.55.47,1.81.2,3.49-1.69,4.72,2.02,1.14,1.47,3.09,1.73,4.8.11.77.24,1.55.36,2.33ZM428.64,160.66c0,1.57-.03,2.98.03,4.4,0,.24.39.67.6.67,1.7,0,3.42.03,5.11-.15,1.38-.15,1.95-1.06,1.92-2.51-.03-1.41-.69-2.28-2.1-2.37-1.78-.11-3.56-.03-5.56-.03Z"/>
  <path class="cls-1" d="M413.69,167.46c-.33-1.21-.01-1.65,1.07-1.6,1.3.06,2.6.05,3.91,0,.86-.03,1.26.21,1.23,1.16-.06,1.83,0,3.66-.04,5.49,0,.36-.3.72-.46,1.08-.31-.29-.64-.56-.91-.88-.14-.17-.16-.43-.27-.76-.26.18-.46.3-.64.44-3.96,3.31-9.56,1.5-10.72-3.54-.74-3.21-.37-6.28,2.25-8.64,3.3-2.98,9.26-1.5,10.39,2.53.03.11.02.24.04.43-.92.31-1.57.35-2.15-.73-1.42-2.69-5.67-2.87-7.59-.41-1.64,2.1-1.76,6.33-.25,8.55,1.03,1.51,3.17,2.2,5.25,1.69,1.84-.45,3.05-1.86,3.3-3.79.1-.73-.09-1.07-.88-1.05-1.17.03-2.34,0-3.54,0Z"/>
  <path class="cls-1" d="M364.48,162.27c0,1.7,0,3.39,0,5.09,0,1.83.03,3.66-.04,5.48-.01.27-.54.75-.77.72-.34-.05-.91-.46-.92-.72-.06-4.35-.05-8.7-.02-13.04,0-.25.29-.71.44-.71.65.02,1.33.1,1.95.3.24.08.37.51.54.79,1.91,3.07,3.82,6.15,5.73,9.22.23.37.48.73,1,1.06.03-.4.07-.81.07-1.21,0-2.97,0-5.93,0-8.9,0-1.42.07-1.46,1.7-1.17.03.36.08.75.08,1.13,0,3.98.02,7.97-.02,11.95,0,.45-.22,1.21-.48,1.28-.75.2-1.56.29-2.13-.63-1.99-3.26-4.05-6.48-6.09-9.71-.23-.36-.49-.71-.73-1.06-.11.05-.22.09-.33.14Z"/>
  <path class="cls-1" d="M508.1,166.43c1.41.74,1.57,1.94,1.65,3.19.08,1.27.2,2.54.31,3.87-1.56.5-1.89.31-2.05-1.53-.06-.73-.06-1.46-.1-2.19-.11-1.64-.69-2.31-2.31-2.42-1.46-.1-2.93-.04-4.39-.07-.73-.02-.88.38-.88,1,.01,1.46-.01,2.93,0,4.39,0,.65-.21.97-.91.97-.69,0-.93-.29-.93-.95.01-4.27,0-8.53.05-12.8,0-.29.54-.82.83-.83,2.23-.04,4.47-.03,6.7.07,1.68.07,3.15.65,3.69,2.45.56,1.89.2,3.54-1.67,4.85ZM503.44,160.63h0c-.69-.01-1.38.01-2.07-.02-.7-.04-1.06.2-1.04.96.03,1.09-.04,2.19.04,3.28.02.32.43.86.66.87,1.66.04,3.33.06,4.97-.12,1.48-.16,2.16-1.17,2.06-2.64-.09-1.42-.84-2.19-2.32-2.31-.77-.06-1.54-.01-2.31-.01Z"/>
  <path class="cls-1" d="M491.88,159.02v1.66c-2.12,0-4.18-.01-6.24,0-2.84.02-2.4-.33-2.44,2.48-.01.64,0,1.29,0,2.09h7.95v1.67c-2.23,0-4.42.06-6.6-.02-1.09-.04-1.47.3-1.37,1.38.08.76.08,1.55,0,2.31-.1,1.05.25,1.45,1.35,1.41,2.15-.07,4.31-.02,6.47-.02.62,0,1.13.04,1.11.89-.02.82-.57.76-1.1.76-2.85,0-5.7-.02-8.55.01-.82,0-1.16-.23-1.16-1.1.03-4.15.02-8.29.02-12.44,0-.55,0-1.08.79-1.08,3.21,0,6.42,0,9.76,0Z"/>
  <path class="cls-1" d="M338.55,165.31h7.99v1.62c-1.7,0-3.4,0-5.09,0q-2.9,0-2.9,2.96c0,.64,0,1.28,0,2.01.62.03,1.1.08,1.58.08,2.12,0,4.23-.03,6.35.05.31.01.61.51.92.78-.26.27-.51.78-.78.78-3.05.06-6.1.06-9.15,0-.27,0-.75-.51-.75-.78-.05-4.31-.05-8.62,0-12.93,0-.29.53-.82.82-.82,2.97-.06,5.94-.03,8.91-.04.62,0,.86.25.86.88,0,.7-.38.8-.93.79-2.2,0-4.4.04-6.59-.02-.95-.02-1.31.29-1.24,1.25.07,1.05.02,2.1.02,3.39Z"/>
  <path class="cls-1" d="M390.97,165.31v1.62c-2.2,0-4.35.06-6.49-.02-1.16-.05-1.64.28-1.51,1.48.12,1.12-.32,2.74.27,3.26.68.61,2.21.3,3.38.33,1.42.04,2.85.02,4.27,0,.63,0,1.13.21.93.89-.09.32-.61.71-.95.72-2.93.06-5.85.02-8.78.04-.77,0-.96-.34-.96-1.04.02-4.18.02-8.37,0-12.55,0-.81.31-1.05,1.08-1.04,2.85.03,5.69.02,8.54,0,.61,0,1.01.11,1,.86,0,.79-.47.82-1.04.81-2.2,0-4.39.02-6.59-.01-.84-.01-1.18.28-1.13,1.13.05.81.06,1.63,0,2.44-.06.89.34,1.1,1.15,1.08,2.23-.04,4.46-.01,6.84-.01Z"/>
  <path class="cls-1" d="M526.43,166.94c-2.3,0-4.53.03-6.76-.02-.84-.02-1.18.24-1.14,1.1.05,1.25.01,2.5.01,3.96,1.54,0,2.95,0,4.36,0,1.22,0,2.44-.05,3.66.05.3.03.56.55.84.85-.28.25-.56.7-.85.71-3.01.05-6.02.06-9.02,0-.28,0-.8-.56-.8-.86-.05-4.27-.03-8.53-.05-12.8,0-.69.28-.93.95-.92,2.93.02,5.85.02,8.78,0,.62,0,.87.23.88.86,0,.67-.34.82-.92.82-2.24-.01-4.47.02-6.71-.01-.84-.01-1.11.3-1.13,1.14-.08,3.5-.1,3.5,3.36,3.5,1.14,0,2.28,0,3.42,0,1.39,0,1.41.03,1.13,1.62Z"/>
  <path class="cls-1" d="M454.36,159.11h1.86c0,3.42.14,6.75-.04,10.06-.18,3.24-2.78,5.03-6.54,4.84-2.97-.15-4.82-2.16-4.84-5.31-.02-3.05,0-6.09.01-9.14,0-.12.05-.23.08-.34,1.63-.45,1.79-.33,1.79,1.27,0,2.64-.03,5.28.02,7.92.05,3.1,2.05,4.56,5.05,3.75,1.66-.45,2.57-1.66,2.6-3.66.04-2.64.01-5.28.02-7.92,0-.44,0-.89,0-1.46Z"/>
  <path class="cls-1" d="M302.37,159.18c0,3.5.16,6.96-.05,10.4-.18,3.04-3.34,4.92-6.87,4.39-2.68-.4-4.36-2.12-4.44-4.83-.1-3.29-.02-6.58-.02-9.99h1.88c0,2.56,0,5.07,0,7.59,0,.57-.01,1.14.01,1.71.11,2.55,1.48,3.95,3.84,3.92,2.41-.03,3.76-1.38,3.82-3.94.05-2.64.02-5.28.02-7.92,0-1.57.07-1.62,1.82-1.31Z"/>
  <path class="cls-1" d="M603.6,159.11h1.85c0,3.42.14,6.76-.04,10.07-.16,2.88-2.16,4.53-5.22,4.79-3.07.26-5.23-1-5.95-3.51-.14-.5-.19-1.04-.2-1.56-.02-2.93,0-5.86-.03-8.78,0-.72.11-1.13.98-1.13.94,0,.92.55.91,1.2,0,2.72-.04,5.45.01,8.17.05,3.15,2.12,4.64,5.14,3.77,1.62-.47,2.48-1.69,2.52-3.74.04-2.6.01-5.21.02-7.81,0-.44,0-.89,0-1.47Z"/>
  <path class="cls-1" d="M570.12,164.51c0,1.5.07,3.01-.01,4.51-.17,3.22-2.51,5.05-6.29,4.99-3-.05-5.03-2.02-5.1-5.09-.07-2.97,0-5.94-.03-8.91,0-.72.2-1.02.96-1.02.8,0,.93.39.93,1.06-.02,2.77-.04,5.53,0,8.3.05,3.14,2.15,4.65,5.17,3.78,1.55-.44,2.44-1.52,2.49-3.36.08-2.89.04-5.77.06-8.66,0-.52-.08-1.09.74-1.11.73-.02,1.15.13,1.13.99-.05,1.5-.01,3.01-.01,4.51,0,0-.02,0-.03,0Z"/>
  <path class="cls-1" d="M588.59,173.48c-1.39.29-2.37.31-3.17-.98-1.3-2.1-2.79-4.07-4.25-6.15-1.56,1.11-2.87,2.17-2.48,4.28.12.67,0,1.38.02,2.07.03.67-.25.94-.93.94-.7,0-.92-.31-.92-.96.01-4.27-.01-8.54.04-12.8,0-.29.5-.72.85-.82.61-.17.98.13.97.85-.03,1.54-.01,3.09,0,4.63,0,.43.04.86.08,1.61.82-.79,1.42-1.37,2.01-1.95,1.41-1.41,2.89-2.75,4.2-4.25.94-1.08,1.99-1,3-.87-1.77,1.93-3.56,3.9-5.44,5.95,1.96,2.74,3.95,5.54,6.03,8.45Z"/>
  <path class="cls-1" d="M542.44,159.01c.53,0,1.08,0,1.64,0,2.48,0,4.96-.02,7.44.02.49,0,1.39.21,1.39.33.01.64-.06,1.38-.38,1.91-.54.9-1.3,1.66-1.96,2.49-1.84,2.28-3.68,4.55-5.52,6.83-.28.34-.51.72-.92,1.29.61.05,1.02.1,1.44.1,2.12,0,4.23,0,6.35,0,.61,0,1.15.02,1.12.88-.02.81-.57.76-1.1.76-3.01,0-6.02.02-9.03-.01-.43,0-1.2-.24-1.21-.4-.03-.56.05-1.25.37-1.68,1.61-2.14,3.31-4.22,4.99-6.31,1.11-1.39,2.22-2.78,3.53-4.42-.69-.05-1.1-.11-1.52-.11-1.83-.01-3.66,0-5.49,0-1.38,0-1.41-.05-1.14-1.67Z"/>
  <path class="cls-1" d="M632.43,165.3h7.15v1.64c-2,0-3.94.05-5.88-.02-1.04-.04-1.34.32-1.29,1.32.07,1.5,0,3,.03,4.51.02.71-.31.9-.96.9-.67,0-.94-.25-.94-.93.02-4.26.02-8.53,0-12.79,0-.71.3-.91.95-.91,2.76.02,5.53.01,8.29,0,.6,0,.88.2.89.85,0,.67-.32.83-.9.83-2.07,0-4.15.03-6.22-.01-.83-.01-1.18.26-1.14,1.12.06,1.12.01,2.25.01,3.5Z"/>
  <path class="cls-1" d="M277.06,165.32h7.14v1.61h-7.14c0,1.95,0,3.77,0,5.58,0,.62-.04,1.13-.88,1.12-.65,0-.97-.2-.97-.9.01-4.27,0-8.54.04-12.81,0-.3.44-.85.68-.86,3.05-.06,6.09-.04,9.24-.04v1.66c-2.09,0-4.15,0-6.21,0q-1.89,0-1.9,1.93c0,.84,0,1.69,0,2.7Z"/>
  <path class="cls-1" d="M656.68,159.02c.46,1.34.02,1.71-1.14,1.68-1.16-.03-2.7-.29-3.38.32-.59.53-.24,2.14-.25,3.27-.02,2.72-.02,5.45,0,8.18,0,.68-.05,1.17-.95,1.17-.93,0-.92-.55-.92-1.2,0-3.5-.02-7,.02-10.49.01-.93-.26-1.34-1.24-1.28-.97.06-1.96.07-2.93-.03-.3-.03-.75-.48-.76-.75-.01-.28.43-.83.67-.83,3.62-.05,7.23-.04,10.87-.04Z"/>
  <path class="cls-1" d="M355.72,166.35c0,2.07-.01,4.14,0,6.21,0,.66-.12,1.08-.92,1.08-.81,0-.92-.44-.92-1.09.01-4.18.02-8.36,0-12.54,0-.73.26-1.01,1-1,.76,0,.85.42.85,1.02-.01,2.11,0,4.22,0,6.33Z"/>
  <path class="cls-1" d="M294.1,155.36h1.9c-.08.63-.01,1.27-.27,1.73-.12.21-1.17.22-1.3.01-.28-.45-.23-1.09-.33-1.75Z"/>
  <path class="cls-1" d="M452.97,157.14c-1.77.24-1.96,0-1.51-1.77.14-.02.3-.06.45-.07.32-.01.64,0,1.06,0v1.84Z"/>
  <path class="cls-1" d="M297.59,157.13v-1.76h1.45c.49,1.76.3,2.02-1.45,1.76Z"/>
  <path class="cls-1" d="M447.86,155.33h1.87c-.08.65-.09,1.27-.29,1.81-.05.14-1,.18-1.08.03-.27-.5-.32-1.11-.5-1.84Z"/>
  <path class="cls-2" d="M94.76,189.41h-17.49c.17-2.54.32-5,.5-7.46.87-12.33,1.75-24.66,2.62-36.99.75-10.55,1.49-21.09,2.24-31.64.13-1.78.72-2.28,2.5-2.24.61.02,1.22.01,1.83-.05,2.17-.24,3.57.95,3.69,3.13,1,18.27,2,36.53,3.01,54.8.35,6.37.74,12.74,1.1,19.11.02.4,0,.8,0,1.33Z"/>
  <path class="cls-2" d="M177.48,189.49c-1.21,0-2.34,0-3.46,0-2.44,0-4.88-.02-7.32.01-.82.01-1.16-.19-1.09-1.1.64-8.75,1.24-17.5,1.84-26.26.44-6.32.86-12.65,1.28-18.97.19-2.8.36-5.59.54-8.39.09-1.31.57-1.73,1.86-1.58.88.1,1.81.15,2.61.48.37.15.68.9.71,1.39.42,6.57.79,13.14,1.17,19.71.63,11.11,1.25,22.23,1.86,33.34.02.36,0,.73,0,1.35Z"/>
  <path class="cls-2" d="M47.07,126.42c7.42-10.52,15.12-20.73,28.1-25.55.48,4.01,2.38,7.02,5.8,8.96-1.28,1.35-2.44,2.69-3.72,3.91-5.28,5.06-11.88,7.73-18.65,10.01-3.46,1.17-7.01,2.05-10.52,3.05-.22.06-.47.04-.7.05-.11-.14-.21-.29-.32-.43Z"/>
  <path class="cls-2" d="M86,51.92c.36.73.69,1.28.92,1.87,2.8,7.32,4.77,14.87,5.6,22.66.46,4.3-.15,8.6-1.14,12.82-.03.14-.15.27-.25.45-3.46-1.22-6.86-1.35-10.17.33-3.45-5.24-.06-31.42,5.04-38.13Z"/>
  <path class="cls-2" d="M125.08,126.67c-7.28-1.26-14.1-3.96-20.79-6.99-4.92-2.24-8.86-5.81-12.72-9.76,3.57-2.09,5.55-5.1,5.97-9.26.53.2.94.34,1.33.5,6.81,2.89,12.46,7.31,17.13,13,2.76,3.36,5.45,6.77,8.14,10.19.47.59.78,1.31,1.16,1.96-.07.12-.15.24-.22.37Z"/>
  <path class="cls-2" d="M77.59,100.03c-.03-4.96,3.84-8.98,8.66-9.01,4.84-.03,8.77,3.93,8.82,8.87.05,4.91-3.87,8.98-8.68,9.02-4.84.04-8.77-3.93-8.8-8.88ZM90.65,99.86c-.02-2.34-1.88-4.16-4.21-4.14-2.31.03-4.12,1.91-4.09,4.26.03,2.32,1.93,4.2,4.21,4.16,2.29-.03,4.11-1.95,4.09-4.28Z"/>
  <path class="cls-2" d="M167.55,131.92c-6.23,7.24-14.76,9.57-23.37,11.84,5.04-7.38,10.35-14.42,19.26-17.79.52,2.58,1.9,4.5,4.11,5.95Z"/>
  <path class="cls-2" d="M171.27,90.72c3.52,4.7,5.72,20.78,3.72,26.54-2.32-1.15-4.66-1.13-6.97.28-2.46-9.47.44-18.02,3.25-26.82Z"/>
  <path class="cls-2" d="M199.33,143.85c-8.71-2.36-17.09-4.85-23.31-11.94,2.17-1.45,3.61-3.34,4.03-5.87,4.47.33,17.58,12.34,19.28,17.81Z"/>
  <path class="cls-2" d="M171.73,130.9c-3.34,0-5.94-2.69-5.92-6.12.02-3.4,2.68-6.11,5.99-6.12,3.24,0,5.96,2.82,5.94,6.18-.02,3.41-2.64,6.06-6,6.06ZM168.5,124.68c-.05,1.92,1.38,3.47,3.25,3.53,1.92.06,3.53-1.48,3.56-3.38.02-1.84-1.51-3.43-3.35-3.47-1.9-.04-3.4,1.41-3.46,3.32Z"/>
  <path class="cls-2" d="M480.34,100.95c-.15,5.26-1.9,9.8-6.23,13.04-5.25,3.93-12.04,3.68-17.12-.53-8.29-6.87-7.56-20.3,1.42-26.18,6.42-4.2,15.01-2.27,19.25,4.31,1.84,2.86,2.73,5.96,2.68,9.37Z"/>
  <path class="cls-2" d="M371.9,102.03c-.14,4.57-2.28,9.34-7.2,12.69-4.87,3.32-12.28,2.5-16.89-1.9-7.22-6.91-6.69-18.88,1.11-24.83,6.59-5.02,15.79-3.39,20.28,3.57,1.82,2.82,2.7,5.9,2.7,10.47Z"/>
  <path class="cls-2" d="M518.86,92.96c0-1.91.01-3.82,0-5.73,0-.66.13-1.09.93-1.08,3.73.05,7.46-.39,11.18.48,4.59,1.08,6.87,5.83,4.65,9.96-1.04,1.94-2.84,2.77-4.8,2.92-3.68.27-7.38.24-11.06.33-.8.02-.89-.51-.89-1.14.01-1.91,0-3.82,0-5.73Z"/>
  <path class="cls-2" d="M704.86,92.88c0-1.91.01-3.82,0-5.73,0-.62.14-1.01.87-1,3.73.04,7.45-.39,11.17.47,4.67,1.08,6.95,5.98,4.57,10.15-.96,1.68-2.55,2.32-4.29,2.69-3.82.82-7.68.62-11.54.38-.76-.05-.78-.55-.77-1.11,0-1.95,0-3.9,0-5.85Z"/>
  <path class="cls-2" d="M288.9,92.87c0-1.91.01-3.82,0-5.73,0-.62.12-1.01.86-1,3.72.05,7.45-.39,11.16.47,4.52,1.05,6.81,5.67,4.74,9.83-.96,1.92-2.66,2.66-4.58,3.05-3.78.76-7.6.62-11.41.29-.28-.02-.71-.6-.72-.94-.07-1.99-.03-3.98-.03-5.97Z"/>
  <path class="cls-2" d="M314.07,165.82q-2.83-.05-2.83-2.85,0-2.36,2.41-2.36c.97,0,1.95-.04,2.92.02,1.54.09,2.31.89,2.39,2.37.08,1.44-.63,2.38-2.12,2.62-.91.14-1.85.14-2.78.2Z"/>
  <path class="cls-2" d="M428.64,160.66c2,0,3.79-.09,5.56.03,1.41.09,2.07.96,2.1,2.37.03,1.46-.54,2.36-1.92,2.51-1.69.19-3.41.16-5.11.15-.21,0-.59-.43-.6-.67-.06-1.41-.03-2.83-.03-4.4Z"/>
  <path class="cls-2" d="M503.44,160.63c.77,0,1.54-.05,2.31.01,1.49.12,2.23.89,2.32,2.31.09,1.47-.58,2.49-2.06,2.64-1.64.18-3.32.15-4.97.12-.24,0-.64-.55-.66-.87-.08-1.09,0-2.19-.04-3.28-.02-.76.34-.99,1.04-.96.69.04,1.38,0,2.07,0h0Z"/>
  <path class="cls-1" d="M90.65,99.86c.02,2.34-1.8,4.25-4.09,4.28-2.29.03-4.18-1.84-4.21-4.16-.03-2.35,1.78-4.23,4.09-4.26,2.33-.03,4.19,1.8,4.21,4.14ZM86.54,101.41c.84-.11,1.38-.58,1.38-1.49,0-.9-.51-1.48-1.41-1.5-.9-.01-1.43.58-1.44,1.47,0,.88.5,1.41,1.46,1.51Z"/>
  <path class="cls-1" d="M168.5,124.68c.05-1.91,1.56-3.36,3.46-3.32,1.84.04,3.37,1.62,3.35,3.47-.02,1.9-1.64,3.44-3.56,3.38-1.87-.06-3.3-1.61-3.25-3.53Z"/>
  <path class="cls-2" d="M86.54,101.41c-.96-.1-1.47-.63-1.46-1.51,0-.89.54-1.48,1.44-1.47.89.01,1.41.6,1.41,1.5,0,.91-.54,1.38-1.38,1.49Z"/>
</svg>